<svg xmlns="http://www.w3.org/2000/svg" width="1928.758" height="441" viewBox="0 0 1928.758 441">
  <path id="Path_2348" data-name="Path 2348" d="M247.491,271.733q0-24.673-17.477-39.653t-61.242-28.2Q92.4,181.853,53.339,151.6T14.273,68.769q0-52.577,44.793-85.915T173.472-50.483q70.494,0,114.846,37.45T331.2,79.343l-.587,1.762H247.491q0-29.666-19.826-48.024T172,14.724q-34.366,0-53.164,15.274t-18.8,39.065q0,21.736,20.12,35.688t69.466,29.519q70.788,19.68,107.21,51.989t36.422,84.887q0,54.927-43.324,86.649T175.528,389.517q-69.907,0-121.9-35.981T3.112,252.641l.587-1.762H87.117q0,38.184,23.351,55.955t65.06,17.77q34.953,0,53.458-14.393T247.491,271.733Zm284.032-66.969H483.94V383.348H398.172V-44.315H483.94V130.451h37.3L634.621-44.315H739.48L595.555,154.83l155.38,228.518H646.37Zm346.3,178.585H792.057V-44.315h85.768Zm171.242-66.088H1239.4v66.088H963.3V-44.315h85.768Zm325.447,0h190.334v66.088h-276.1V-44.315h85.768Zm470.547-45.527q0-24.673-17.477-39.653t-61.242-28.2q-76.369-22.029-115.434-52.283t-39.065-82.83q0-52.577,44.793-85.915t114.406-33.338q70.494,0,114.846,37.45t42.884,92.377l-.587,1.762h-83.124q0-29.666-19.826-48.024t-55.661-18.358q-34.366,0-53.164,15.274t-18.8,39.065q0,21.736,20.12,35.688T1787.2,134.27q70.788,19.68,107.21,51.989t36.422,84.887q0,54.927-43.324,86.649T1773.1,389.517q-69.907,0-121.9-35.981t-50.521-100.895l.588-1.762h83.418q0,38.184,23.351,55.955t65.06,17.77q34.953,0,53.458-14.393T1845.061,271.733Z" transform="translate(-2.572 50.983)" fill="none" stroke="#323a40" stroke-width="1" opacity="0.5"/>
</svg>
